<mxfile host="app.diagrams.net" agent="Mozilla/5.0 (X11; Linux x86_64) AppleWebKit/537.36 (KHTML, like Gecko) Chrome/135.0.0.0 Safari/537.36" version="26.2.14">
  <diagram name="Page-1" id="vHG7mOKKZMKuYX-PGG-n">
    <mxGraphModel dx="883" dy="459" grid="0" gridSize="10" guides="1" tooltips="1" connect="1" arrows="1" fold="1" page="1" pageScale="1" pageWidth="1100" pageHeight="850" math="0" shadow="0">
      <root>
        <mxCell id="0" />
        <mxCell id="1" parent="0" />
        <mxCell id="097z2trLRk12nKmmqsXY-2" value="USER" style="rounded=0;whiteSpace=wrap;html=1;fillColor=none;" parent="1" vertex="1">
          <mxGeometry x="304" y="405" width="110" height="50" as="geometry" />
        </mxCell>
        <mxCell id="097z2trLRk12nKmmqsXY-5" value="&lt;div&gt;adopts&lt;/div&gt;" style="shape=rhombus;perimeter=rhombusPerimeter;whiteSpace=wrap;html=1;align=center;fillColor=none;" parent="1" vertex="1">
          <mxGeometry x="494" y="400" width="120" height="60" as="geometry" />
        </mxCell>
        <mxCell id="097z2trLRk12nKmmqsXY-6" value="" style="endArrow=none;html=1;rounded=0;entryX=0;entryY=0.5;entryDx=0;entryDy=0;exitX=1;exitY=0.5;exitDx=0;exitDy=0;" parent="1" source="097z2trLRk12nKmmqsXY-2" target="097z2trLRk12nKmmqsXY-5" edge="1">
          <mxGeometry width="50" height="50" relative="1" as="geometry">
            <mxPoint x="534" y="510" as="sourcePoint" />
            <mxPoint x="584" y="460" as="targetPoint" />
          </mxGeometry>
        </mxCell>
        <mxCell id="097z2trLRk12nKmmqsXY-7" value="" style="endArrow=none;html=1;rounded=0;exitX=1;exitY=0.5;exitDx=0;exitDy=0;entryX=0.01;entryY=0.583;entryDx=0;entryDy=0;entryPerimeter=0;" parent="1" target="097z2trLRk12nKmmqsXY-31" edge="1">
          <mxGeometry width="50" height="50" relative="1" as="geometry">
            <mxPoint x="614" y="429.5" as="sourcePoint" />
            <mxPoint x="694" y="430" as="targetPoint" />
          </mxGeometry>
        </mxCell>
        <mxCell id="097z2trLRk12nKmmqsXY-9" value="" style="ellipse;whiteSpace=wrap;html=1;aspect=fixed;fillColor=light-dark(#FFFFFF,#F9FBFF);" parent="1" vertex="1">
          <mxGeometry x="264" y="424" width="10" height="10" as="geometry" />
        </mxCell>
        <mxCell id="097z2trLRk12nKmmqsXY-10" value="" style="endArrow=none;html=1;rounded=0;exitX=1;exitY=0.5;exitDx=0;exitDy=0;entryX=-0.001;entryY=0.491;entryDx=0;entryDy=0;entryPerimeter=0;" parent="1" source="097z2trLRk12nKmmqsXY-9" target="097z2trLRk12nKmmqsXY-2" edge="1">
          <mxGeometry width="50" height="50" relative="1" as="geometry">
            <mxPoint x="254" y="437" as="sourcePoint" />
            <mxPoint x="304" y="429.5" as="targetPoint" />
          </mxGeometry>
        </mxCell>
        <mxCell id="097z2trLRk12nKmmqsXY-11" value="name" style="text;html=1;align=center;verticalAlign=middle;resizable=0;points=[];autosize=1;strokeColor=none;fillColor=none;" parent="1" vertex="1">
          <mxGeometry x="217" y="397" width="50" height="30" as="geometry" />
        </mxCell>
        <mxCell id="097z2trLRk12nKmmqsXY-13" value="" style="endArrow=none;html=1;rounded=0;exitX=1;exitY=0.5;exitDx=0;exitDy=0;entryX=0;entryY=0.5;entryDx=0;entryDy=0;" parent="1" source="OTOVHvQYVz1heglmI_JG-7" edge="1">
          <mxGeometry width="50" height="50" relative="1" as="geometry">
            <mxPoint x="254" y="442" as="sourcePoint" />
            <mxPoint x="304" y="442" as="targetPoint" />
            <Array as="points">
              <mxPoint x="294" y="446" />
            </Array>
          </mxGeometry>
        </mxCell>
        <mxCell id="097z2trLRk12nKmmqsXY-14" value="username" style="text;html=1;align=center;verticalAlign=middle;resizable=0;points=[];autosize=1;strokeColor=none;fillColor=none;" parent="1" vertex="1">
          <mxGeometry x="192" y="414" width="80" height="30" as="geometry" />
        </mxCell>
        <mxCell id="097z2trLRk12nKmmqsXY-15" value="" style="ellipse;whiteSpace=wrap;html=1;aspect=fixed;fillColor=none;" parent="1" vertex="1">
          <mxGeometry x="264" y="457" width="10" height="10" as="geometry" />
        </mxCell>
        <mxCell id="097z2trLRk12nKmmqsXY-16" value="" style="endArrow=none;html=1;rounded=0;exitX=1;exitY=0.5;exitDx=0;exitDy=0;entryX=-0.001;entryY=0.76;entryDx=0;entryDy=0;entryPerimeter=0;" parent="1" source="097z2trLRk12nKmmqsXY-15" edge="1">
          <mxGeometry width="50" height="50" relative="1" as="geometry">
            <mxPoint x="254" y="467" as="sourcePoint" />
            <mxPoint x="303.89" y="455" as="targetPoint" />
            <Array as="points">
              <mxPoint x="294" y="462" />
            </Array>
          </mxGeometry>
        </mxCell>
        <mxCell id="097z2trLRk12nKmmqsXY-17" value="email" style="text;html=1;align=center;verticalAlign=middle;resizable=0;points=[];autosize=1;strokeColor=none;fillColor=none;" parent="1" vertex="1">
          <mxGeometry x="218" y="431" width="50" height="30" as="geometry" />
        </mxCell>
        <mxCell id="097z2trLRk12nKmmqsXY-18" value="" style="ellipse;whiteSpace=wrap;html=1;aspect=fixed;" parent="1" vertex="1">
          <mxGeometry x="824" y="405" width="10" height="10" as="geometry" />
        </mxCell>
        <mxCell id="097z2trLRk12nKmmqsXY-22" value="" style="endArrow=none;html=1;rounded=0;exitX=1;exitY=0.25;exitDx=0;exitDy=0;entryX=0;entryY=0.5;entryDx=0;entryDy=0;" parent="1" source="097z2trLRk12nKmmqsXY-31" target="097z2trLRk12nKmmqsXY-18" edge="1">
          <mxGeometry width="50" height="50" relative="1" as="geometry">
            <mxPoint x="793.9999999999999" y="424.56" as="sourcePoint" />
            <mxPoint x="834" y="421" as="targetPoint" />
            <Array as="points">
              <mxPoint x="804" y="410" />
            </Array>
          </mxGeometry>
        </mxCell>
        <mxCell id="097z2trLRk12nKmmqsXY-28" value="" style="endArrow=none;html=1;rounded=0;exitX=1;exitY=0.75;exitDx=0;exitDy=0;entryX=0;entryY=0.5;entryDx=0;entryDy=0;" parent="1" source="097z2trLRk12nKmmqsXY-31" target="097z2trLRk12nKmmqsXY-34" edge="1">
          <mxGeometry width="50" height="50" relative="1" as="geometry">
            <mxPoint x="793.9999999999999" y="450" as="sourcePoint" />
            <mxPoint x="834" y="450" as="targetPoint" />
            <Array as="points">
              <mxPoint x="804" y="442" />
            </Array>
          </mxGeometry>
        </mxCell>
        <mxCell id="097z2trLRk12nKmmqsXY-29" value="" style="endArrow=none;html=1;rounded=0;exitX=1;exitY=0.5;exitDx=0;exitDy=0;entryX=0;entryY=0.5;entryDx=0;entryDy=0;" parent="1" source="097z2trLRk12nKmmqsXY-31" target="097z2trLRk12nKmmqsXY-33" edge="1">
          <mxGeometry width="50" height="50" relative="1" as="geometry">
            <mxPoint x="793.9999999999999" y="434.57" as="sourcePoint" />
            <mxPoint x="834.15" y="437.44" as="targetPoint" />
          </mxGeometry>
        </mxCell>
        <mxCell id="097z2trLRk12nKmmqsXY-30" value="" style="endArrow=none;html=1;rounded=0;exitX=0.985;exitY=0.713;exitDx=0;exitDy=0;exitPerimeter=0;entryX=0;entryY=0.5;entryDx=0;entryDy=0;" parent="1" target="097z2trLRk12nKmmqsXY-32" edge="1">
          <mxGeometry width="50" height="50" relative="1" as="geometry">
            <mxPoint x="794.0000000000001" y="401" as="sourcePoint" />
            <mxPoint x="834" y="401" as="targetPoint" />
            <Array as="points">
              <mxPoint x="804" y="394" />
            </Array>
          </mxGeometry>
        </mxCell>
        <mxCell id="097z2trLRk12nKmmqsXY-31" value="CAT" style="rounded=0;whiteSpace=wrap;html=1;fillColor=none;" parent="1" vertex="1">
          <mxGeometry x="684" y="401" width="110" height="50" as="geometry" />
        </mxCell>
        <mxCell id="097z2trLRk12nKmmqsXY-32" value="" style="ellipse;whiteSpace=wrap;html=1;aspect=fixed;" parent="1" vertex="1">
          <mxGeometry x="824" y="389" width="10" height="10" as="geometry" />
        </mxCell>
        <mxCell id="097z2trLRk12nKmmqsXY-33" value="" style="ellipse;whiteSpace=wrap;html=1;aspect=fixed;" parent="1" vertex="1">
          <mxGeometry x="824" y="421" width="10" height="10" as="geometry" />
        </mxCell>
        <mxCell id="097z2trLRk12nKmmqsXY-34" value="" style="ellipse;whiteSpace=wrap;html=1;aspect=fixed;" parent="1" vertex="1">
          <mxGeometry x="824" y="437" width="10" height="10" as="geometry" />
        </mxCell>
        <mxCell id="097z2trLRk12nKmmqsXY-35" value="name" style="text;html=1;align=left;verticalAlign=middle;resizable=0;points=[];autosize=1;strokeColor=none;fillColor=none;" parent="1" vertex="1">
          <mxGeometry x="836" y="379" width="50" height="30" as="geometry" />
        </mxCell>
        <mxCell id="OTOVHvQYVz1heglmI_JG-1" value="breed" style="text;html=1;align=left;verticalAlign=middle;resizable=0;points=[];autosize=1;strokeColor=none;fillColor=none;" parent="1" vertex="1">
          <mxGeometry x="836" y="395" width="50" height="30" as="geometry" />
        </mxCell>
        <mxCell id="OTOVHvQYVz1heglmI_JG-2" value="age" style="text;html=1;align=left;verticalAlign=middle;resizable=0;points=[];autosize=1;strokeColor=none;fillColor=none;" parent="1" vertex="1">
          <mxGeometry x="836" y="411" width="40" height="30" as="geometry" />
        </mxCell>
        <mxCell id="OTOVHvQYVz1heglmI_JG-5" value="vaccinated" style="text;html=1;align=center;verticalAlign=middle;resizable=0;points=[];autosize=1;strokeColor=none;fillColor=none;" parent="1" vertex="1">
          <mxGeometry x="827" y="427" width="80" height="30" as="geometry" />
        </mxCell>
        <mxCell id="OTOVHvQYVz1heglmI_JG-6" value="" style="endArrow=none;html=1;rounded=0;exitX=0.887;exitY=-0.003;exitDx=0;exitDy=0;exitPerimeter=0;entryX=-0.021;entryY=0.552;entryDx=0;entryDy=0;entryPerimeter=0;" parent="1" source="097z2trLRk12nKmmqsXY-31" target="OTOVHvQYVz1heglmI_JG-8" edge="1">
          <mxGeometry width="50" height="50" relative="1" as="geometry">
            <mxPoint x="784.0000000000001" y="400" as="sourcePoint" />
            <mxPoint x="834" y="370" as="targetPoint" />
            <Array as="points">
              <mxPoint x="804" y="377" />
            </Array>
          </mxGeometry>
        </mxCell>
        <mxCell id="OTOVHvQYVz1heglmI_JG-8" value="" style="ellipse;whiteSpace=wrap;html=1;aspect=fixed;fillColor=light-dark(#FFFFFF,#FEF8FF);" parent="1" vertex="1">
          <mxGeometry x="824" y="372" width="10" height="10" as="geometry" />
        </mxCell>
        <mxCell id="OTOVHvQYVz1heglmI_JG-9" value="id" style="text;html=1;align=center;verticalAlign=middle;resizable=0;points=[];autosize=1;strokeColor=none;fillColor=none;" parent="1" vertex="1">
          <mxGeometry x="827" y="362" width="30" height="30" as="geometry" />
        </mxCell>
        <mxCell id="OTOVHvQYVz1heglmI_JG-10" value="(0, 1)" style="text;html=1;align=center;verticalAlign=middle;resizable=0;points=[];autosize=1;strokeColor=none;fillColor=none;" parent="1" vertex="1">
          <mxGeometry x="414" y="405" width="50" height="30" as="geometry" />
        </mxCell>
        <mxCell id="OTOVHvQYVz1heglmI_JG-11" value="(0, 1)" style="text;html=1;align=center;verticalAlign=middle;resizable=0;points=[];autosize=1;strokeColor=none;fillColor=none;" parent="1" vertex="1">
          <mxGeometry x="634" y="405" width="50" height="30" as="geometry" />
        </mxCell>
        <mxCell id="OTOVHvQYVz1heglmI_JG-12" value="" style="endArrow=none;html=1;rounded=0;exitX=0.989;exitY=0.604;exitDx=0;exitDy=0;entryX=0;entryY=0;entryDx=0;entryDy=0;exitPerimeter=0;" parent="1" source="OTOVHvQYVz1heglmI_JG-13" target="097z2trLRk12nKmmqsXY-2" edge="1">
          <mxGeometry width="50" height="50" relative="1" as="geometry">
            <mxPoint x="254" y="386" as="sourcePoint" />
            <mxPoint x="304" y="386" as="targetPoint" />
            <Array as="points">
              <mxPoint x="294" y="395" />
            </Array>
          </mxGeometry>
        </mxCell>
        <mxCell id="OTOVHvQYVz1heglmI_JG-13" value="" style="ellipse;whiteSpace=wrap;html=1;aspect=fixed;fillColor=light-dark(#FFFFFF,#FEF8FF);" parent="1" vertex="1">
          <mxGeometry x="264" y="389" width="10" height="10" as="geometry" />
        </mxCell>
        <mxCell id="OTOVHvQYVz1heglmI_JG-14" value="id" style="text;html=1;align=center;verticalAlign=middle;resizable=0;points=[];autosize=1;strokeColor=none;fillColor=none;" parent="1" vertex="1">
          <mxGeometry x="237" y="379" width="30" height="30" as="geometry" />
        </mxCell>
        <mxCell id="BjRblmnfcvMmh_3Kh4f8-1" value="" style="endArrow=none;html=1;rounded=0;exitX=1;exitY=0.5;exitDx=0;exitDy=0;entryX=1;entryY=0.5;entryDx=0;entryDy=0;" parent="1" source="OTOVHvQYVz1heglmI_JG-7" target="OTOVHvQYVz1heglmI_JG-7" edge="1">
          <mxGeometry width="50" height="50" relative="1" as="geometry">
            <mxPoint x="254" y="442" as="sourcePoint" />
            <mxPoint x="304" y="442" as="targetPoint" />
          </mxGeometry>
        </mxCell>
        <mxCell id="OTOVHvQYVz1heglmI_JG-7" value="" style="ellipse;whiteSpace=wrap;html=1;aspect=fixed;fillColor=light-dark(#FFFFFF,#FEF8FF);" parent="1" vertex="1">
          <mxGeometry x="264" y="441" width="10" height="10" as="geometry" />
        </mxCell>
        <mxCell id="BjRblmnfcvMmh_3Kh4f8-2" value="" style="endArrow=none;html=1;rounded=0;exitX=0.989;exitY=0.604;exitDx=0;exitDy=0;entryX=0;entryY=0.25;entryDx=0;entryDy=0;exitPerimeter=0;" parent="1" source="BjRblmnfcvMmh_3Kh4f8-3" target="097z2trLRk12nKmmqsXY-2" edge="1">
          <mxGeometry width="50" height="50" relative="1" as="geometry">
            <mxPoint x="264" y="396" as="sourcePoint" />
            <mxPoint x="314" y="415" as="targetPoint" />
            <Array as="points">
              <mxPoint x="294" y="411" />
            </Array>
          </mxGeometry>
        </mxCell>
        <mxCell id="BjRblmnfcvMmh_3Kh4f8-3" value="" style="ellipse;whiteSpace=wrap;html=1;aspect=fixed;fillColor=none;" parent="1" vertex="1">
          <mxGeometry x="264" y="405" width="10" height="10" as="geometry" />
        </mxCell>
        <mxCell id="BjRblmnfcvMmh_3Kh4f8-5" value="" style="ellipse;whiteSpace=wrap;html=1;aspect=fixed;" parent="1" vertex="1">
          <mxGeometry x="264" y="475" width="10" height="10" as="geometry" />
        </mxCell>
        <mxCell id="BjRblmnfcvMmh_3Kh4f8-6" value="" style="endArrow=none;html=1;rounded=0;exitX=1;exitY=0.5;exitDx=0;exitDy=0;entryX=0.101;entryY=1.008;entryDx=0;entryDy=0;entryPerimeter=0;" parent="1" source="BjRblmnfcvMmh_3Kh4f8-5" target="097z2trLRk12nKmmqsXY-2" edge="1">
          <mxGeometry width="50" height="50" relative="1" as="geometry">
            <mxPoint x="264" y="477" as="sourcePoint" />
            <mxPoint x="313.89" y="465" as="targetPoint" />
            <Array as="points">
              <mxPoint x="294" y="480" />
            </Array>
          </mxGeometry>
        </mxCell>
        <mxCell id="BjRblmnfcvMmh_3Kh4f8-7" value="password" style="text;html=1;align=center;verticalAlign=middle;resizable=0;points=[];autosize=1;strokeColor=none;fillColor=none;" parent="1" vertex="1">
          <mxGeometry x="197" y="465" width="70" height="30" as="geometry" />
        </mxCell>
        <mxCell id="BjRblmnfcvMmh_3Kh4f8-9" value="&lt;div&gt;requests_to&lt;span style=&quot;background-color: transparent; color: light-dark(rgb(0, 0, 0), rgb(255, 255, 255));&quot;&gt;_&lt;/span&gt;&lt;span style=&quot;background-color: transparent; color: light-dark(rgb(0, 0, 0), rgb(255, 255, 255));&quot;&gt;adopt&lt;/span&gt;&lt;/div&gt;" style="shape=rhombus;perimeter=rhombusPerimeter;whiteSpace=wrap;html=1;align=center;fillColor=none;" parent="1" vertex="1">
          <mxGeometry x="484" y="280" width="140" height="70" as="geometry" />
        </mxCell>
        <mxCell id="BjRblmnfcvMmh_3Kh4f8-10" value="" style="endArrow=none;html=1;rounded=0;entryX=0;entryY=0.5;entryDx=0;entryDy=0;exitX=0.5;exitY=0;exitDx=0;exitDy=0;" parent="1" source="097z2trLRk12nKmmqsXY-2" target="BjRblmnfcvMmh_3Kh4f8-9" edge="1">
          <mxGeometry width="50" height="50" relative="1" as="geometry">
            <mxPoint x="424" y="440" as="sourcePoint" />
            <mxPoint x="504" y="440" as="targetPoint" />
            <Array as="points">
              <mxPoint x="359" y="315" />
            </Array>
          </mxGeometry>
        </mxCell>
        <mxCell id="BjRblmnfcvMmh_3Kh4f8-11" value="" style="endArrow=none;html=1;rounded=0;entryX=1;entryY=0.5;entryDx=0;entryDy=0;exitX=0.5;exitY=0;exitDx=0;exitDy=0;" parent="1" source="097z2trLRk12nKmmqsXY-31" target="BjRblmnfcvMmh_3Kh4f8-9" edge="1">
          <mxGeometry width="50" height="50" relative="1" as="geometry">
            <mxPoint x="369" y="415" as="sourcePoint" />
            <mxPoint x="504" y="325" as="targetPoint" />
            <Array as="points">
              <mxPoint x="739" y="315" />
            </Array>
          </mxGeometry>
        </mxCell>
        <mxCell id="BjRblmnfcvMmh_3Kh4f8-12" value="(0, n)" style="text;html=1;align=center;verticalAlign=middle;resizable=0;points=[];autosize=1;strokeColor=none;fillColor=none;" parent="1" vertex="1">
          <mxGeometry x="354" y="379" width="50" height="30" as="geometry" />
        </mxCell>
        <mxCell id="BjRblmnfcvMmh_3Kh4f8-13" value="(0, n)" style="text;html=1;align=center;verticalAlign=middle;resizable=0;points=[];autosize=1;strokeColor=none;fillColor=none;" parent="1" vertex="1">
          <mxGeometry x="694" y="375" width="50" height="30" as="geometry" />
        </mxCell>
        <mxCell id="BjRblmnfcvMmh_3Kh4f8-14" value="" style="endArrow=none;html=1;rounded=0;exitX=0.5;exitY=0;exitDx=0;exitDy=0;entryX=0;entryY=0.5;entryDx=0;entryDy=0;" parent="1" source="BjRblmnfcvMmh_3Kh4f8-9" target="BjRblmnfcvMmh_3Kh4f8-15" edge="1">
          <mxGeometry width="50" height="50" relative="1" as="geometry">
            <mxPoint x="553.9999999999999" y="259" as="sourcePoint" />
            <mxPoint x="594" y="259" as="targetPoint" />
          </mxGeometry>
        </mxCell>
        <mxCell id="BjRblmnfcvMmh_3Kh4f8-15" value="" style="ellipse;whiteSpace=wrap;html=1;aspect=fixed;direction=south;" parent="1" vertex="1">
          <mxGeometry x="549" y="250" width="10" height="10" as="geometry" />
        </mxCell>
        <mxCell id="BjRblmnfcvMmh_3Kh4f8-16" value="status" style="text;html=1;align=center;verticalAlign=middle;resizable=0;points=[];autosize=1;strokeColor=none;fillColor=none;" parent="1" vertex="1">
          <mxGeometry x="549" y="240" width="60" height="30" as="geometry" />
        </mxCell>
        <mxCell id="BjRblmnfcvMmh_3Kh4f8-17" value="" style="endArrow=none;html=1;rounded=0;exitX=1;exitY=1;exitDx=0;exitDy=0;entryX=0;entryY=0.5;entryDx=0;entryDy=0;" parent="1" source="097z2trLRk12nKmmqsXY-31" target="BjRblmnfcvMmh_3Kh4f8-18" edge="1">
          <mxGeometry width="50" height="50" relative="1" as="geometry">
            <mxPoint x="793.9999999999999" y="469" as="sourcePoint" />
            <mxPoint x="834" y="469" as="targetPoint" />
            <Array as="points">
              <mxPoint x="804" y="460" />
            </Array>
          </mxGeometry>
        </mxCell>
        <mxCell id="BjRblmnfcvMmh_3Kh4f8-18" value="" style="ellipse;whiteSpace=wrap;html=1;aspect=fixed;" parent="1" vertex="1">
          <mxGeometry x="824" y="455" width="10" height="10" as="geometry" />
        </mxCell>
        <mxCell id="BjRblmnfcvMmh_3Kh4f8-19" value="picture" style="text;html=1;align=center;verticalAlign=middle;resizable=0;points=[];autosize=1;strokeColor=none;fillColor=none;" parent="1" vertex="1">
          <mxGeometry x="826" y="444" width="60" height="30" as="geometry" />
        </mxCell>
        <mxCell id="BjRblmnfcvMmh_3Kh4f8-34" value="is_admin" style="text;html=1;align=center;verticalAlign=middle;resizable=0;points=[];autosize=1;strokeColor=none;fillColor=none;" parent="1" vertex="1">
          <mxGeometry x="198" y="448" width="70" height="30" as="geometry" />
        </mxCell>
      </root>
    </mxGraphModel>
  </diagram>
</mxfile>
